<svg width="18" height="18" viewBox="0 0 18 18" fill="none" xmlns="http://www.w3.org/2000/svg">
<path fill-rule="evenodd" clip-rule="evenodd" d="M12.499 1.50775C13.5779 1.44032 14.6418 1.81493 15.4434 2.54917C16.1777 3.35084 16.5523 4.41474 16.4924 5.50112V12.4989C16.5598 13.5853 16.1777 14.6492 15.4509 15.4508C14.6493 16.1851 13.5779 16.5597 12.499 16.4922H5.50115C4.41477 16.5597 3.35086 16.1851 2.54918 15.4508C1.81494 14.6492 1.44032 13.5853 1.50775 12.4989V5.50112C1.44032 4.41474 1.81494 3.35084 2.54918 2.54917C3.35086 1.81493 4.41477 1.44032 5.50115 1.50775H12.499ZM8.23585 12.6337L13.2782 7.57647C13.7352 7.11195 13.7352 6.36273 13.2782 5.9057L12.3042 4.93171C11.8396 4.46719 11.0904 4.46719 10.6259 4.93171L10.1239 5.44118C10.049 5.5161 10.049 5.64347 10.1239 5.7184C10.1239 5.7184 11.3152 6.90217 11.3377 6.93214C11.4201 7.02205 11.4725 7.14192 11.4725 7.27678C11.4725 7.5465 11.2552 7.77127 10.978 7.77127C10.8507 7.77127 10.7308 7.71883 10.6484 7.63641L9.39715 6.3927C9.33721 6.33276 9.23232 6.33276 9.17238 6.3927L5.59855 9.9665C5.35131 10.2137 5.20895 10.5434 5.20146 10.8955L5.15651 12.6712C5.15651 12.7686 5.18648 12.8585 5.25391 12.9259C5.32134 12.9934 5.41124 13.0308 5.50864 13.0308H7.26934C7.62897 13.0308 7.97361 12.8885 8.23585 12.6337Z" fill="#9CA3AF"/>
</svg>
