<svg width="14" height="14" viewBox="0 0 14 14" fill="none" xmlns="http://www.w3.org/2000/svg">
<path fill-rule="evenodd" clip-rule="evenodd" d="M1.1665 6.99996C1.1665 3.77996 3.774 1.16663 6.99984 1.16663C10.2198 1.16663 12.8332 3.77996 12.8332 6.99996C12.8332 10.22 10.2198 12.8333 6.99984 12.8333C3.774 12.8333 1.1665 10.22 1.1665 6.99996ZM4.3865 7.69996C4.0015 7.69996 3.6865 7.38496 3.6865 6.99996C3.6865 6.61496 4.0015 6.30054 4.3865 6.30054C4.7715 6.30054 5.08067 6.61496 5.08067 6.99996C5.08067 7.38496 4.7715 7.69996 4.3865 7.69996ZM6.29984 6.99996C6.29984 7.38496 6.61484 7.69996 6.99984 7.69996C7.38484 7.69996 7.694 7.38496 7.694 6.99996C7.694 6.61496 7.38484 6.30054 6.99984 6.30054C6.61484 6.30054 6.29984 6.61496 6.29984 6.99996ZM8.91317 6.99996C8.91317 7.38496 9.22234 7.69996 9.61317 7.69996C9.99817 7.69996 10.3073 7.38496 10.3073 6.99996C10.3073 6.61496 9.99817 6.30054 9.61317 6.30054C9.22234 6.30054 8.91317 6.61496 8.91317 6.99996Z" fill="#EEEEEE" fill-opacity="0.85"/>
</svg>
