<svg width="14" height="14" viewBox="0 0 14 14" fill="none" xmlns="http://www.w3.org/2000/svg">
<path fill-rule="evenodd" clip-rule="evenodd" d="M2.0415 6.01865C2.0415 3.3354 4.28377 1.16663 6.99601 1.16663C9.71591 1.16663 11.9582 3.3354 11.9582 6.01865C11.9582 7.37078 11.4664 8.62608 10.657 9.69005C9.76414 10.8637 8.6636 11.8862 7.42482 12.6889C7.1413 12.8744 6.88543 12.8884 6.57427 12.6889C5.32843 11.8862 4.22789 10.8637 3.34263 9.69005C2.53266 8.62608 2.0415 7.37078 2.0415 6.01865ZM5.36314 6.16973C5.36314 7.06862 6.09664 7.7756 6.99601 7.7756C7.89598 7.7756 8.63654 7.06862 8.63654 6.16973C8.63654 5.27784 7.89598 4.53644 6.99601 4.53644C6.09664 4.53644 5.36314 5.27784 5.36314 6.16973Z" fill="#EEEEEE" fill-opacity="0.85"/>
</svg>
