<svg width="11" height="10" viewBox="0 0 11 10" fill="none" xmlns="http://www.w3.org/2000/svg">
<path d="M5.20313 0.416829L8.6247 1.17516C8.71905 1.19738 8.79675 1.24739 8.8578 1.32516C8.91885 1.40294 8.94938 1.48905 8.94938 1.5835V5.74183C8.94938 6.16405 8.85087 6.5585 8.65384 6.92516C8.45682 7.29183 8.18348 7.59183 7.83383 7.82516L5.20313 9.5835L2.57243 7.82516C2.22278 7.59183 1.94944 7.29183 1.75242 6.92516C1.55539 6.5585 1.45688 6.16405 1.45688 5.74183V1.5835C1.45688 1.48905 1.4874 1.40294 1.54845 1.32516C1.6095 1.24739 1.6872 1.19738 1.78155 1.17516L5.20313 0.416829ZM7.0596 3.42516L4.995 5.49183L3.82118 4.3085L3.2301 4.90016L4.995 6.66683L7.64235 4.01683L7.0596 3.42516Z" fill="white"/>
</svg>
